<?xml version="1.0" encoding="iso-8859-1"?>
<!DOCTYPE svg PUBLIC "-//W3C//DTD SVG 1.1 Basic//EN" "http://www.w3.org/Graphics/SVG/1.1/DTD/svg11-basic.dtd">
<svg version="1.1" baseProfile="basic"
   xmlns="http://www.w3.org/2000/svg" xmlns:xlink="http://www.w3.org/1999/xlink" x="0px" y="0px" width="128px" height="128px"
   viewBox="0 0 128 128" xml:space="preserve">
  <path transform="matrix(0.128,0,0,0.128,0,0)" stroke="none" style="fill:#CD362C" d="M 181 0 L 227 0 L 227 166 L 181 166 L 181 0 M 554 0 L 600 0 L 600 166 L 554 166 L 554 0 M 367 0 L 414 0 L 414 166 L 367 166 L 367 0 M 941 591 L 961 571 C 970 579 983 579 991 570 C 1000 562 1000 548 991 539 L 962 510 C 953 501 939 501 931 510 C 923 518 922 532 930 540 L 910 560 C 872 527 824 506 771 501 L 771 459 L 792 459 L 792 415 L 707 415 L 707 459 L 728 459 L 728 501 C 601 512 501 619 501 749 C 501 886 613 998 749 998 C 886 998 998 886 998 749 C 998 689 976 634 941 591 z M 749 937 C 646 937 562 853 562 749 C 562 645 646 561 749 561 C 853 561 937 645 937 749 C 937 853 853 937 749 937 z M 724 748 C 724 762 736 774 749 774 C 763 774 775 762 775 748 C 775 730 749 605 749 605 C 749 605 724 730 724 748 z M 669 474 L 669 458 L 669 415 L 669 377 L 707 377 L 782 377 L 782 89 L 697 89 L 668 89 L 623 89 L 623 189 L 530 189 L 530 89 L 437 89 L 437 189 L 344 189 L 344 89 L 251 89 L 251 189 L 158 189 L 158 89 L 0 89 L 0 769 L 465 769 C 464 762 464 756 464 749 C 464 621 551 509 669 474 z"/>
</svg>