<?xml version="1.0" encoding="iso-8859-1"?>
<!DOCTYPE svg PUBLIC "-//W3C//DTD SVG 1.1 Basic//EN" "http://www.w3.org/Graphics/SVG/1.1/DTD/svg11-basic.dtd">
<svg version="1.1" baseProfile="basic"
   xmlns="http://www.w3.org/2000/svg" xmlns:xlink="http://www.w3.org/1999/xlink" x="0px" y="0px" width="128px" height="128px"
   viewBox="0 0 128 128" xml:space="preserve">
  <path transform="matrix(0.128,0,0,0.128,0,2)" stroke="none" style="fill:#FACC33" d="M 719 18 C 719 8 710 0 700 0 L 700 0 C 690 0 682 8 682 18 L 682 69 C 682 79 690 87 700 87 L 700 87 C 710 87 719 79 719 69 L 719 18 z M 930 279 C 919 279 911 287 911 297 L 911 297 C 911 308 919 316 930 316 L 981 316 C 991 316 1000 308 1000 297 L 1000 297 C 1000 287 991 279 981 279 L 930 279 z M 912 113 C 919 106 919 94 912 87 L 912 87 C 905 80 893 80 886 87 L 849 123 C 842 130 842 142 849 149 L 849 149 C 856 156 868 156 875 149 L 912 113 z M 515 87 C 507 80 496 80 488 87 L 488 87 C 481 94 481 106 488 113 L 525 149 C 532 156 544 156 551 149 L 551 149 C 558 142 558 130 551 123 L 515 87 z M 875 446 C 868 439 856 439 849 446 L 849 446 C 842 453 842 465 849 472 L 886 508 C 893 515 905 515 912 508 L 912 508 C 919 501 919 489 912 482 L 875 446 z M 572 187 C 603 150 648 127 700 127 C 792 127 866 202 866 294 C 866 371 814 436 743 455 C 739 337 671 237 572 187 z M 261 733 L 345 733 L 213 959 L 534 682 L 426 682 L 525 482 L 261 733 z M 813 619 C 813 697 750 760 673 760 L 609 760 C 609 760 552 760 481 760 L 550 701 C 558 695 561 684 557 674 C 553 664 544 658 534 658 L 466 658 L 546 494 C 548 490 550 486 550 482 C 550 468 538 457 525 457 C 525 457 525 457 525 457 C 524 457 524 457 524 457 C 518 457 512 459 507 464 L 244 715 C 236 722 234 733 238 742 C 242 752 251 758 261 758 L 302 758 L 300 760 C 286 760 273 760 263 760 C 171 760 144 755 144 755 C 59 735 0 660 0 571 C 0 478 68 398 158 384 C 196 266 306 185 430 185 C 587 185 715 314 715 473 C 715 477 714 481 714 484 C 772 502 813 556 813 619 z"/>
</svg>